{"title":"Cosmos A Space Time Odyssey S01E04 HDTV x264 AAC E-Subs [GWC].mp","uid":9858949,"size":140767087,"categoryP":"video","categoryS":"tv_shows","magnet":"?xt=urn:btih:c18c43b18e5ac64bac2276b2294a9c112c250f5a&amp;dn=Cosmos+A+Space+Time+Odyssey+S01E04+HDTV+x264+AAC+E-Subs+%5BGWC%5D.mp&amp;tr=udp%3A%2F%2Ftracker.openbittorrent.com%3A80&amp;tr=udp%3A%2F%2Fopen.demonii.com%3A1337&amp;tr=udp%3A%2F%2Ftracker.coppersurfer.tk%3A6969&amp;tr=udp%3A%2F%2Fexodus.desync.com%3A6969","seeders":1,"leechers":0,"uploader":"canc232","files":1,"time":1396262034,"description":"Cosmos A Space Time Odyssey S01E04 HDTV x264 AAC E-Subs [GWC]\n\n\nSUMMARY :\nA documentary series that explores how we discovered the laws of nature and found our coordinates in space and time. \n\n\nSCREENS : &lt;a href=&quot;\nhttp://i.imgur.com/fkfQwKE.jpg&quot; rel=&quot;nofollow&quot; target=&quot;_NEW&quot;&gt;\nhttp://i.imgur.com/fkfQwKE.jpg&lt;/a&gt; &lt;a href=&quot;\nhttp://i.imgur.com/GPf8ipd.jpg&quot; rel=&quot;nofollow&quot; target=&quot;_NEW&quot;&gt;\nhttp://i.imgur.com/GPf8ipd.jpg&lt;/a&gt; &lt;a href=&quot;\nhttp://i.imgur.com/G4FiKLb.jpg&quot; rel=&quot;nofollow&quot; target=&quot;_NEW&quot;&gt;\nhttp://i.imgur.com/G4FiKLb.jpg&lt;/a&gt;\n\n\nMEDIA INFO :\nGeneral \nFormat : MPEG-4 \nFormat profile : Base Media \nFile size : 134 MiB \nDuration : 41mn 19s \nOverall bit rate mode : Variable \nOverall bit rate : 454 Kbps \n\nVideo \nFormat : AVC \nFormat profile : &lt;a class=&quot;__cf_email__&quot; href=&quot;/cdn-cgi/l/email-protection&quot; data-cfemail=&quot;80c8e9e7e8c0ccb3aeb0&quot;&gt;[email&amp;#160;protected]&lt;/a&gt;&lt;script cf-hash='f9e31' type=&quot;text/javascript&quot;&gt;\n/* &lt;![CDATA[ */!function(){try{var t=&quot;currentScript&quot;in document?document.currentScript:function(){for(var t=document.getElementsByTagName(&quot;script&quot;),e=t.length;e--;)if(t[e].getAttribute(&quot;cf-hash&quot;))return t[e]}();if(t&amp;&amp;t.previousSibling){var e,r,n,i,c=t.previousSibling,a=c.getAttribute(&quot;data-cfemail&quot;);if(a){for(e=&quot;&quot;,r=parseInt(a.substr(0,2),16),n=2;a.length-n;n+=2)i=parseInt(a.substr(n,2),16)^r,e+=String.fromCharCode(i);e=document.createTextNode(e),c.parentNode.replaceChild(e,c)}}}catch(u){}}();/* ]]&gt; */&lt;/script&gt; \nFormat settings, CABAC : Yes \nFormat settings, ReFrames : 4 frames \nDuration : 41mn 18s \nBit rate : 391 Kbps \nMaximum bit rate : 3 126 Kbps \nWidth : 720 pixels \nHeight : 404 pixels \nDisplay aspect ratio : 16:9 \nFrame rate : 23.976 fps \nStream size : 116 MiB (86%) \nTitle : Cosmos A Space Time Odyssey S01E04 HDTV x264 AAC E-Subs [GWC] \nWriting library : x264 core\n\nAudio \nFormat : AAC \nFormat profile : HE-AAC / LC \nDuration : 41mn 19s \nBit rate mode : Variable \nChannel(s) : 2 channels \nSampling rate : 48.0 KHz / 24.0 KHz \nStream size : 17.7 MiB (13%) \nLanguage : English \n\nText \nFormat : Timed Text \nTitle : English Subtitle by n17t01 \nLanguage : English ","torrent":{"xt":"urn:btih:c18c43b18e5ac64bac2276b2294a9c112c250f5a","amp;dn":"Cosmos+A+Space+Time+Odyssey+S01E04+HDTV+x264+AAC+E-Subs+%5BGWC%5D.mp","amp;tr":["udp%3A%2F%2Ftracker.openbittorrent.com%3A80","udp%3A%2F%2Fopen.demonii.com%3A1337","udp%3A%2F%2Ftracker.coppersurfer.tk%3A6969","udp%3A%2F%2Fexodus.desync.com%3A6969"],"infoHash":"c18c43b18e5ac64bac2276b2294a9c112c250f5a","infoHashBuffer":{"type":"Buffer","data":[193,140,67,177,142,90,198,75,172,34,118,178,41,74,156,17,44,37,15,90]},"announce":[],"urlList":[]}}